<mxfile host="app.diagrams.net" modified="2024-06-04T07:13:41.154Z" agent="Mozilla/5.0 (Windows NT 10.0; Win64; x64) AppleWebKit/537.36 (KHTML, like Gecko) Chrome/125.0.0.0 Safari/537.36" etag="bYXP98pkjDFhvI22HY4O" version="24.4.13" type="github">
  <diagram id="R2lEEEUBdFMjLlhIrx00" name="Page-1">
    <mxGraphModel dx="1723" dy="1755" grid="1" gridSize="10" guides="1" tooltips="1" connect="1" arrows="1" fold="1" page="1" pageScale="1" pageWidth="850" pageHeight="1100" math="0" shadow="0" extFonts="Permanent Marker^https://fonts.googleapis.com/css?family=Permanent+Marker">
      <root>
        <mxCell id="0" />
        <mxCell id="1" parent="0" />
        <mxCell id="FRkQdts8WObfKBkTxOf2-7" value="" style="shape=partialRectangle;overflow=hidden;connectable=0;fillColor=none;top=0;left=0;bottom=0;right=0;align=left;spacingLeft=6;" parent="1" vertex="1">
          <mxGeometry x="65" y="-30" width="220" height="30" as="geometry">
            <mxRectangle width="220" height="30" as="alternateBounds" />
          </mxGeometry>
        </mxCell>
        <mxCell id="FRkQdts8WObfKBkTxOf2-8" value="" style="shape=partialRectangle;overflow=hidden;connectable=0;fillColor=none;top=0;left=0;bottom=0;right=0;align=left;spacingLeft=6;" parent="1" vertex="1">
          <mxGeometry x="55" y="30" width="220" height="30" as="geometry">
            <mxRectangle width="220" height="30" as="alternateBounds" />
          </mxGeometry>
        </mxCell>
        <mxCell id="FRkQdts8WObfKBkTxOf2-9" value="" style="shape=partialRectangle;overflow=hidden;connectable=0;fillColor=none;top=0;left=0;bottom=0;right=0;align=left;spacingLeft=6;" parent="1" vertex="1">
          <mxGeometry x="55" y="30" width="220" height="30" as="geometry">
            <mxRectangle width="220" height="30" as="alternateBounds" />
          </mxGeometry>
        </mxCell>
        <mxCell id="rI2ckynDh9ffU-YXD1pw-51" value="" style="shape=partialRectangle;overflow=hidden;connectable=0;fillColor=none;top=0;left=0;bottom=0;right=0;align=left;spacingLeft=6;" parent="1" vertex="1">
          <mxGeometry x="1055" y="350" width="220" height="30" as="geometry">
            <mxRectangle width="220" height="30" as="alternateBounds" />
          </mxGeometry>
        </mxCell>
        <mxCell id="rI2ckynDh9ffU-YXD1pw-137" value="" style="shape=partialRectangle;overflow=hidden;connectable=0;fillColor=none;top=0;left=0;bottom=0;right=0;align=left;spacingLeft=6;" parent="1" vertex="1">
          <mxGeometry x="65" width="220" height="30" as="geometry">
            <mxRectangle width="220" height="30" as="alternateBounds" />
          </mxGeometry>
        </mxCell>
        <mxCell id="7hoT9Ia_uspJayf44At0-24" value="Inversor" style="swimlane;childLayout=stackLayout;horizontal=1;startSize=50;horizontalStack=0;rounded=1;fontSize=14;fontStyle=0;strokeWidth=2;resizeParent=0;resizeLast=1;shadow=0;dashed=0;align=center;arcSize=4;whiteSpace=wrap;html=1;" parent="1" vertex="1">
          <mxGeometry x="55" y="-310" width="155" height="185" as="geometry" />
        </mxCell>
        <mxCell id="7hoT9Ia_uspJayf44At0-25" value="identificador_fiscal PK&lt;div&gt;id_usuario&amp;nbsp; &amp;nbsp; &amp;nbsp; &amp;nbsp; &amp;nbsp;FK&lt;br&gt;&lt;div&gt;simbolo&lt;/div&gt;&lt;div&gt;nombre&lt;/div&gt;&lt;div&gt;tipo_persona&lt;/div&gt;&lt;div&gt;direccion&lt;br&gt;&lt;/div&gt;&lt;div&gt;telefono&lt;br&gt;&lt;/div&gt;&lt;div&gt;correo_electronico&lt;br&gt;&lt;/div&gt;&lt;/div&gt;" style="align=left;strokeColor=none;fillColor=none;spacingLeft=4;fontSize=12;verticalAlign=top;resizable=0;rotatable=0;part=1;html=1;" parent="7hoT9Ia_uspJayf44At0-24" vertex="1">
          <mxGeometry y="50" width="155" height="135" as="geometry" />
        </mxCell>
        <mxCell id="7hoT9Ia_uspJayf44At0-33" value="Usuario" style="swimlane;childLayout=stackLayout;horizontal=1;startSize=50;horizontalStack=0;rounded=1;fontSize=14;fontStyle=0;strokeWidth=2;resizeParent=0;resizeLast=1;shadow=0;dashed=0;align=center;arcSize=4;whiteSpace=wrap;html=1;" parent="1" vertex="1">
          <mxGeometry x="330" y="-310" width="175" height="167.5" as="geometry" />
        </mxCell>
        <mxCell id="7hoT9Ia_uspJayf44At0-34" value="id_usuario PK 1&lt;div&gt;&lt;span style=&quot;background-color: initial;&quot;&gt;nombre_usuario&lt;/span&gt;&lt;div&gt;&lt;div&gt;contraseÃ±a&lt;/div&gt;&lt;div&gt;saldo_inicial&lt;/div&gt;&lt;div&gt;&lt;br&gt;&lt;/div&gt;&lt;/div&gt;&lt;/div&gt;" style="align=left;strokeColor=none;fillColor=none;spacingLeft=4;fontSize=12;verticalAlign=top;resizable=0;rotatable=0;part=1;html=1;" parent="7hoT9Ia_uspJayf44At0-33" vertex="1">
          <mxGeometry y="50" width="175" height="117.5" as="geometry" />
        </mxCell>
        <mxCell id="7hoT9Ia_uspJayf44At0-37" value="Portafolio" style="swimlane;childLayout=stackLayout;horizontal=1;startSize=50;horizontalStack=0;rounded=1;fontSize=14;fontStyle=0;strokeWidth=2;resizeParent=0;resizeLast=1;shadow=0;dashed=0;align=center;arcSize=4;whiteSpace=wrap;html=1;" parent="1" vertex="1">
          <mxGeometry x="570" y="-570" width="180" height="160" as="geometry" />
        </mxCell>
        <mxCell id="7hoT9Ia_uspJayf44At0-38" value="id_portafolio&amp;nbsp; &amp;nbsp; &amp;nbsp; &amp;nbsp; PK&lt;br&gt;id_usuario&amp;nbsp; &amp;nbsp; &amp;nbsp; &amp;nbsp; &amp;nbsp;FK&lt;div&gt;Id_tipo_inversor&amp;nbsp; FK&lt;/div&gt;" style="align=left;strokeColor=none;fillColor=none;spacingLeft=4;fontSize=12;verticalAlign=top;resizable=0;rotatable=0;part=1;html=1;" parent="7hoT9Ia_uspJayf44At0-37" vertex="1">
          <mxGeometry y="50" width="180" height="110" as="geometry" />
        </mxCell>
        <mxCell id="7hoT9Ia_uspJayf44At0-45" value="Empresa" style="swimlane;childLayout=stackLayout;horizontal=1;startSize=50;horizontalStack=0;rounded=1;fontSize=14;fontStyle=0;strokeWidth=2;resizeParent=0;resizeLast=1;shadow=0;dashed=0;align=center;arcSize=4;whiteSpace=wrap;html=1;" parent="1" vertex="1">
          <mxGeometry x="130" y="-40" width="170" height="230" as="geometry" />
        </mxCell>
        <mxCell id="7hoT9Ia_uspJayf44At0-46" value="id_empresa PK&lt;div&gt;nombre&lt;/div&gt;&lt;div&gt;cantidad_acciones&lt;/div&gt;&lt;div&gt;precio_actual_compra&lt;/div&gt;&lt;div&gt;precio_actual_venta&lt;/div&gt;&lt;div&gt;cantidad_compra_diaria&lt;br&gt;cantidad_venta_diaria&lt;/div&gt;&lt;div&gt;precio_apertura&lt;/div&gt;&lt;div&gt;precio_minimo_diario&lt;/div&gt;&lt;div&gt;precio_maximo_diario&lt;/div&gt;&lt;div&gt;precio_cierre&amp;nbsp;&lt;/div&gt;" style="align=left;strokeColor=none;fillColor=none;spacingLeft=4;fontSize=12;verticalAlign=top;resizable=0;rotatable=0;part=1;html=1;" parent="7hoT9Ia_uspJayf44At0-45" vertex="1">
          <mxGeometry y="50" width="170" height="180" as="geometry" />
        </mxCell>
        <mxCell id="7hoT9Ia_uspJayf44At0-47" value="TipoInversor" style="swimlane;childLayout=stackLayout;horizontal=1;startSize=50;horizontalStack=0;rounded=1;fontSize=14;fontStyle=0;strokeWidth=2;resizeParent=0;resizeLast=1;shadow=0;dashed=0;align=center;arcSize=4;whiteSpace=wrap;html=1;" parent="1" vertex="1">
          <mxGeometry x="90" y="-570" width="170" height="160" as="geometry" />
        </mxCell>
        <mxCell id="7hoT9Ia_uspJayf44At0-48" value="id_tipo_inversor&amp;nbsp; PK&amp;nbsp; &amp;nbsp;&lt;div&gt;nombre_tipo&lt;/div&gt;" style="align=left;strokeColor=none;fillColor=none;spacingLeft=4;fontSize=12;verticalAlign=top;resizable=0;rotatable=0;part=1;html=1;" parent="7hoT9Ia_uspJayf44At0-47" vertex="1">
          <mxGeometry y="50" width="170" height="110" as="geometry" />
        </mxCell>
        <mxCell id="7hoT9Ia_uspJayf44At0-49" value="Transaccion" style="swimlane;childLayout=stackLayout;horizontal=1;startSize=50;horizontalStack=0;rounded=1;fontSize=14;fontStyle=0;strokeWidth=2;resizeParent=0;resizeLast=1;shadow=0;dashed=0;align=center;arcSize=4;whiteSpace=wrap;html=1;" parent="1" vertex="1">
          <mxGeometry x="690" y="-20" width="170" height="170" as="geometry" />
        </mxCell>
        <mxCell id="7hoT9Ia_uspJayf44At0-50" value="id_transaccion&amp;nbsp; PK&lt;div&gt;id_inversor&amp;nbsp; &amp;nbsp; &amp;nbsp; &amp;nbsp; &amp;nbsp;FK&lt;/div&gt;&lt;div&gt;Id_empresa&amp;nbsp; &amp;nbsp; &amp;nbsp; &amp;nbsp;FK&lt;/div&gt;&lt;div&gt;tipo_operacion&lt;/div&gt;&lt;div&gt;fecha&lt;/div&gt;&lt;div&gt;precio&lt;/div&gt;&lt;div&gt;cantidad&lt;/div&gt;" style="align=left;strokeColor=none;fillColor=none;spacingLeft=4;fontSize=12;verticalAlign=top;resizable=0;rotatable=0;part=1;html=1;" parent="7hoT9Ia_uspJayf44At0-49" vertex="1">
          <mxGeometry y="50" width="170" height="120" as="geometry" />
        </mxCell>
        <mxCell id="AP3MOZmC3ACQSBozkBBV-1" value="ElementoPortafolio" style="swimlane;childLayout=stackLayout;horizontal=1;startSize=50;horizontalStack=0;rounded=1;fontSize=14;fontStyle=0;strokeWidth=2;resizeParent=0;resizeLast=1;shadow=0;dashed=0;align=center;arcSize=4;whiteSpace=wrap;html=1;" parent="1" vertex="1">
          <mxGeometry x="840" y="-360" width="170" height="155" as="geometry" />
        </mxCell>
        <mxCell id="AP3MOZmC3ACQSBozkBBV-2" value="&lt;div&gt;id_elemento_portafolio&amp;nbsp; PK&lt;/div&gt;&lt;div&gt;id_portafolio&amp;nbsp; &amp;nbsp;FK&lt;/div&gt;&lt;div&gt;id_empresa&amp;nbsp; &amp;nbsp; FK&lt;/div&gt;&lt;div&gt;transaccion&amp;nbsp; &amp;nbsp; &amp;nbsp;FK&lt;/div&gt;&lt;div&gt;cantidad_acciones&lt;/div&gt;&lt;div&gt;&lt;br&gt;&lt;/div&gt;&lt;div&gt;&lt;br&gt;&lt;/div&gt;" style="align=left;strokeColor=none;fillColor=none;spacingLeft=4;fontSize=12;verticalAlign=top;resizable=0;rotatable=0;part=1;html=1;" parent="AP3MOZmC3ACQSBozkBBV-1" vertex="1">
          <mxGeometry y="50" width="170" height="105" as="geometry" />
        </mxCell>
        <mxCell id="IzTKzGxvQKlJKgZH8_c9-1" value="" style="edgeStyle=entityRelationEdgeStyle;fontSize=12;html=1;endArrow=ERoneToMany;rounded=0;entryX=0;entryY=0.5;entryDx=0;entryDy=0;exitX=1;exitY=0.25;exitDx=0;exitDy=0;" edge="1" parent="1" source="7hoT9Ia_uspJayf44At0-38" target="AP3MOZmC3ACQSBozkBBV-1">
          <mxGeometry width="100" height="100" relative="1" as="geometry">
            <mxPoint x="560" y="-183.75" as="sourcePoint" />
            <mxPoint x="660" y="-283.75" as="targetPoint" />
          </mxGeometry>
        </mxCell>
        <mxCell id="IzTKzGxvQKlJKgZH8_c9-2" value="1 : *" style="edgeLabel;html=1;align=center;verticalAlign=middle;resizable=0;points=[];" vertex="1" connectable="0" parent="IzTKzGxvQKlJKgZH8_c9-1">
          <mxGeometry x="-0.1183" y="-3" relative="1" as="geometry">
            <mxPoint y="-3" as="offset" />
          </mxGeometry>
        </mxCell>
        <mxCell id="IzTKzGxvQKlJKgZH8_c9-3" value="" style="edgeStyle=entityRelationEdgeStyle;fontSize=12;html=1;endArrow=ERoneToMany;rounded=0;exitX=1.011;exitY=0.094;exitDx=0;exitDy=0;exitPerimeter=0;entryX=0;entryY=0.5;entryDx=0;entryDy=0;" edge="1" parent="1" source="7hoT9Ia_uspJayf44At0-34" target="7hoT9Ia_uspJayf44At0-38">
          <mxGeometry width="100" height="100" relative="1" as="geometry">
            <mxPoint x="300" y="-190" as="sourcePoint" />
            <mxPoint x="400" y="-290" as="targetPoint" />
          </mxGeometry>
        </mxCell>
        <mxCell id="IzTKzGxvQKlJKgZH8_c9-4" value="1 : *" style="edgeLabel;html=1;align=center;verticalAlign=middle;resizable=0;points=[];" vertex="1" connectable="0" parent="IzTKzGxvQKlJKgZH8_c9-3">
          <mxGeometry x="-0.0681" relative="1" as="geometry">
            <mxPoint as="offset" />
          </mxGeometry>
        </mxCell>
        <mxCell id="IzTKzGxvQKlJKgZH8_c9-5" value="" style="edgeStyle=entityRelationEdgeStyle;fontSize=12;html=1;endArrow=ERmandOne;startArrow=ERmandOne;rounded=0;entryX=-0.016;entryY=0.394;entryDx=0;entryDy=0;entryPerimeter=0;exitX=1.005;exitY=0.096;exitDx=0;exitDy=0;exitPerimeter=0;" edge="1" parent="1" source="7hoT9Ia_uspJayf44At0-46" target="AP3MOZmC3ACQSBozkBBV-2">
          <mxGeometry width="100" height="100" relative="1" as="geometry">
            <mxPoint x="470" y="30" as="sourcePoint" />
            <mxPoint x="570" y="-70" as="targetPoint" />
            <Array as="points">
              <mxPoint x="580" y="-20" />
              <mxPoint x="720" />
            </Array>
          </mxGeometry>
        </mxCell>
        <mxCell id="IzTKzGxvQKlJKgZH8_c9-6" value="1: 1" style="edgeLabel;html=1;align=center;verticalAlign=middle;resizable=0;points=[];" vertex="1" connectable="0" parent="IzTKzGxvQKlJKgZH8_c9-5">
          <mxGeometry x="-0.116" relative="1" as="geometry">
            <mxPoint as="offset" />
          </mxGeometry>
        </mxCell>
        <mxCell id="IzTKzGxvQKlJKgZH8_c9-10" value="" style="edgeStyle=entityRelationEdgeStyle;fontSize=12;html=1;endArrow=ERoneToMany;rounded=0;exitX=0;exitY=0.25;exitDx=0;exitDy=0;entryX=0.994;entryY=0.2;entryDx=0;entryDy=0;entryPerimeter=0;" edge="1" parent="1" source="7hoT9Ia_uspJayf44At0-34" target="7hoT9Ia_uspJayf44At0-25">
          <mxGeometry width="100" height="100" relative="1" as="geometry">
            <mxPoint x="330" y="-140" as="sourcePoint" />
            <mxPoint x="430" y="-240" as="targetPoint" />
          </mxGeometry>
        </mxCell>
        <mxCell id="IzTKzGxvQKlJKgZH8_c9-11" value="1 : *" style="edgeLabel;html=1;align=center;verticalAlign=middle;resizable=0;points=[];" vertex="1" connectable="0" parent="IzTKzGxvQKlJKgZH8_c9-10">
          <mxGeometry x="-0.0196" relative="1" as="geometry">
            <mxPoint as="offset" />
          </mxGeometry>
        </mxCell>
        <mxCell id="IzTKzGxvQKlJKgZH8_c9-12" value="" style="edgeStyle=entityRelationEdgeStyle;fontSize=12;html=1;endArrow=ERoneToMany;rounded=0;exitX=1;exitY=0.25;exitDx=0;exitDy=0;entryX=0;entryY=0.5;entryDx=0;entryDy=0;" edge="1" parent="1" source="7hoT9Ia_uspJayf44At0-48" target="7hoT9Ia_uspJayf44At0-37">
          <mxGeometry width="100" height="100" relative="1" as="geometry">
            <mxPoint x="280" y="-470" as="sourcePoint" />
            <mxPoint x="380" y="-570" as="targetPoint" />
          </mxGeometry>
        </mxCell>
        <mxCell id="IzTKzGxvQKlJKgZH8_c9-13" value="1 : *" style="edgeLabel;html=1;align=center;verticalAlign=middle;resizable=0;points=[];" vertex="1" connectable="0" parent="IzTKzGxvQKlJKgZH8_c9-12">
          <mxGeometry x="-0.0931" y="3" relative="1" as="geometry">
            <mxPoint as="offset" />
          </mxGeometry>
        </mxCell>
        <mxCell id="IzTKzGxvQKlJKgZH8_c9-16" value="" style="edgeStyle=entityRelationEdgeStyle;fontSize=12;html=1;endArrow=ERoneToMany;rounded=0;entryX=1.018;entryY=0.442;entryDx=0;entryDy=0;entryPerimeter=0;" edge="1" parent="1" source="AP3MOZmC3ACQSBozkBBV-2" target="7hoT9Ia_uspJayf44At0-50">
          <mxGeometry width="100" height="100" relative="1" as="geometry">
            <mxPoint x="977.9500000000003" y="-191.9949999999999" as="sourcePoint" />
            <mxPoint x="860" y="50" as="targetPoint" />
            <Array as="points">
              <mxPoint x="1090" y="10" />
            </Array>
          </mxGeometry>
        </mxCell>
        <mxCell id="IzTKzGxvQKlJKgZH8_c9-17" value="1 : *" style="edgeLabel;html=1;align=center;verticalAlign=middle;resizable=0;points=[];" vertex="1" connectable="0" parent="IzTKzGxvQKlJKgZH8_c9-16">
          <mxGeometry x="-0.1799" relative="1" as="geometry">
            <mxPoint y="1" as="offset" />
          </mxGeometry>
        </mxCell>
        <mxCell id="IzTKzGxvQKlJKgZH8_c9-18" value="" style="edgeStyle=entityRelationEdgeStyle;fontSize=12;html=1;endArrow=ERoneToMany;rounded=0;exitX=1.018;exitY=0.2;exitDx=0;exitDy=0;exitPerimeter=0;entryX=0.006;entryY=0.35;entryDx=0;entryDy=0;entryPerimeter=0;" edge="1" parent="1" source="7hoT9Ia_uspJayf44At0-46" target="7hoT9Ia_uspJayf44At0-50">
          <mxGeometry width="100" height="100" relative="1" as="geometry">
            <mxPoint x="390" y="110" as="sourcePoint" />
            <mxPoint x="490" y="10" as="targetPoint" />
          </mxGeometry>
        </mxCell>
        <mxCell id="IzTKzGxvQKlJKgZH8_c9-19" value="1 : *" style="edgeLabel;html=1;align=center;verticalAlign=middle;resizable=0;points=[];" vertex="1" connectable="0" parent="IzTKzGxvQKlJKgZH8_c9-18">
          <mxGeometry x="-0.0045" y="-2" relative="1" as="geometry">
            <mxPoint as="offset" />
          </mxGeometry>
        </mxCell>
        <mxCell id="IzTKzGxvQKlJKgZH8_c9-20" value="" style="edgeStyle=entityRelationEdgeStyle;fontSize=12;html=1;endArrow=ERmandOne;startArrow=ERmandOne;rounded=0;exitX=1.006;exitY=0.681;exitDx=0;exitDy=0;exitPerimeter=0;entryX=0.012;entryY=0.117;entryDx=0;entryDy=0;entryPerimeter=0;" edge="1" parent="1" source="7hoT9Ia_uspJayf44At0-25" target="7hoT9Ia_uspJayf44At0-50">
          <mxGeometry width="100" height="100" relative="1" as="geometry">
            <mxPoint x="420" y="-10" as="sourcePoint" />
            <mxPoint x="520" y="-110" as="targetPoint" />
            <Array as="points">
              <mxPoint x="650" y="10" />
            </Array>
          </mxGeometry>
        </mxCell>
        <mxCell id="IzTKzGxvQKlJKgZH8_c9-21" value="1 : 1" style="edgeLabel;html=1;align=center;verticalAlign=middle;resizable=0;points=[];" vertex="1" connectable="0" parent="IzTKzGxvQKlJKgZH8_c9-20">
          <mxGeometry x="-0.2827" y="1" relative="1" as="geometry">
            <mxPoint as="offset" />
          </mxGeometry>
        </mxCell>
      </root>
    </mxGraphModel>
  </diagram>
</mxfile>
